<?xml version="1.0" encoding="UTF-8" standalone="no"?>
<!DOCTYPE svg PUBLIC "-//W3C//DTD SVG 1.1//EN" "http://www.w3.org/Graphics/SVG/1.1/DTD/svg11.dtd">
<svg width="100%" height="100%" viewBox="0 0 1245 168" version="1.1" xmlns="http://www.w3.org/2000/svg" xmlns:xlink="http://www.w3.org/1999/xlink" xml:space="preserve" xmlns:serif="http://www.serif.com/" style="fill-rule:evenodd;clip-rule:evenodd;stroke-linejoin:round;stroke-miterlimit:2;">
    <g transform="matrix(1,0,0,1,-294.743,-830.71)">
        <path d="M364.644,998.472L294.743,998.472L294.743,970.512L364.644,970.512L364.644,998.472ZM364.644,970.512L364.644,942.551L392.604,942.551L392.604,970.512L364.644,970.512ZM364.644,942.551L322.703,942.551L322.703,914.591L364.644,914.591L364.644,942.551ZM322.703,914.591L294.743,914.591L294.743,886.631L322.703,886.631L322.703,914.591ZM392.604,886.631L322.703,886.631L322.703,858.671L392.604,858.671L392.604,886.631Z" style="fill:white;fill-rule:nonzero;"/>
    </g>
    <g transform="matrix(1,0,0,1,-294.743,-830.71)">
        <path d="M476.485,998.472L448.525,998.472L448.525,970.512L476.485,970.512L476.485,998.472ZM448.525,970.512L420.564,970.512L420.564,900.611L406.584,900.611L406.584,872.651L420.564,872.651L420.564,844.69L448.525,844.69L448.525,872.651L462.505,872.651L462.505,900.611L448.525,900.611L448.525,970.512Z" style="fill:white;fill-rule:nonzero;"/>
    </g>
    <g transform="matrix(1,0,0,1,-294.743,-830.71)">
        <path d="M602.306,998.472L518.425,998.472L518.425,970.512L574.346,970.512L574.346,872.651L602.306,872.651L602.306,998.472ZM518.425,970.512L490.465,970.512L490.465,872.651L518.425,872.651L518.425,970.512Z" style="fill:white;fill-rule:nonzero;"/>
    </g>
    <g transform="matrix(1,0,0,1,-294.743,-830.71)">
        <path d="M728.128,998.472L616.286,998.472L616.286,900.611L644.247,900.611L644.247,872.651L700.167,872.651L700.167,830.71L728.128,830.71L728.128,998.472ZM644.247,970.512L700.167,970.512L700.167,900.611L644.247,900.611L644.247,970.512Z" style="fill:white;fill-rule:nonzero;"/>
    </g>
    <g transform="matrix(1,0,0,1,-294.743,-830.71)">
        <path d="M770.068,998.472L742.108,998.472L742.108,872.651L770.068,872.651L770.068,998.472ZM770.068,858.671L742.108,858.671L742.108,830.71L770.068,830.71L770.068,858.671Z" style="fill:white;fill-rule:nonzero;"/>
    </g>
    <g transform="matrix(1,0,0,1,-294.743,-830.71)">
        <path d="M867.929,998.472L812.009,998.472L812.009,970.512L867.929,970.512L867.929,998.472ZM867.929,970.512L867.929,900.611L895.89,900.611L895.89,970.512L867.929,970.512ZM812.009,970.512L784.048,970.512L784.048,900.611L812.009,900.611L812.009,970.512ZM867.929,900.611L812.009,900.611L812.009,872.651L867.929,872.651L867.929,900.611Z" style="fill:white;fill-rule:nonzero;"/>
    </g>
    <g transform="matrix(1,0,0,1,-294.743,-830.71)">
        <path d="M1035.69,998.472L1007.73,998.472L1007.73,900.611L979.77,900.611L979.77,872.651L1007.73,872.651L1007.73,830.71L1077.63,830.71L1077.63,858.671L1035.69,858.671L1035.69,872.651L1091.61,872.651L1091.61,900.611L1035.69,900.611L1035.69,998.472Z" style="fill:white;fill-rule:nonzero;"/>
    </g>
    <g transform="matrix(1,0,0,1,-294.743,-830.71)">
        <path d="M1217.43,998.472L1133.55,998.472L1133.55,970.512L1189.47,970.512L1189.47,956.532L1217.43,956.532L1217.43,998.472ZM1133.55,970.512L1105.59,970.512L1105.59,900.611L1133.55,900.611L1133.55,872.651L1217.43,872.651L1217.43,928.571L1189.47,928.571L1189.47,942.551L1133.55,942.551L1133.55,970.512ZM1133.55,914.591L1189.47,914.591L1189.47,900.611L1133.55,900.611L1133.55,914.591Z" style="fill:white;fill-rule:nonzero;"/>
    </g>
    <g transform="matrix(1,0,0,1,-294.743,-830.71)">
        <path d="M1259.37,998.472L1231.41,998.472L1231.41,872.651L1259.37,872.651L1259.37,998.472ZM1259.37,858.671L1231.41,858.671L1231.41,830.71L1259.37,830.71L1259.37,858.671Z" style="fill:white;fill-rule:nonzero;"/>
    </g>
    <g transform="matrix(1,0,0,1,-294.743,-830.71)">
        <rect x="1273.35" y="830.71" width="27.96" height="167.762" style="fill:white;fill-rule:nonzero;"/>
    </g>
    <g transform="matrix(1,0,0,1,-294.743,-830.71)">
        <path d="M1427.13,998.472L1343.25,998.472L1343.25,970.512L1399.17,970.512L1399.17,956.532L1427.13,956.532L1427.13,998.472ZM1343.25,970.512L1315.29,970.512L1315.29,900.611L1343.25,900.611L1343.25,872.651L1427.13,872.651L1427.13,928.571L1399.17,928.571L1399.17,942.551L1343.25,942.551L1343.25,970.512ZM1343.25,914.591L1399.17,914.591L1399.17,900.611L1343.25,900.611L1343.25,914.591Z" style="fill:white;fill-rule:nonzero;"/>
    </g>
    <g transform="matrix(1,0,0,1,-294.743,-830.71)">
        <path d="M1525,914.591L1525,900.611L1483.06,900.611L1483.06,914.591L1469.08,914.591L1469.08,998.472L1441.12,998.472L1441.12,872.651L1469.08,872.651L1469.08,886.631L1483.06,886.631L1483.06,872.651L1525,872.651L1525,886.631L1538.98,886.631L1538.98,914.591L1525,914.591Z" style="fill:white;fill-rule:nonzero;"/>
    </g>
</svg>
