<?xml version="1.0" encoding="UTF-8" standalone="no"?>
<!DOCTYPE svg PUBLIC "-//W3C//DTD SVG 1.1//EN" "http://www.w3.org/Graphics/SVG/1.1/DTD/svg11.dtd">
<svg width="100%" height="100%" viewBox="0 0 24 24" version="1.1" xmlns="http://www.w3.org/2000/svg" xmlns:xlink="http://www.w3.org/1999/xlink" xml:space="preserve" xmlns:serif="http://www.serif.com/" style="fill-rule:evenodd;clip-rule:evenodd;stroke-linejoin:round;stroke-miterlimit:2;">
    <path d="M0,0L0,20.16C0,22.267 1.733,24 3.84,24L20.16,24C22.267,24 24,22.267 24,20.16L24,3.84C24,1.733 22.267,0 20.16,0L0,0ZM14.256,13.08C15.816,13.08 16.536,14.16 16.56,15.72L14.952,15.72C14.976,15.432 14.904,15.12 14.808,14.88C14.712,14.688 14.52,14.616 14.256,14.616C13.8,14.616 13.56,14.88 13.56,15.456C13.536,16.032 13.848,16.344 14.328,16.536C15.048,16.824 15.936,17.28 16.248,17.832C16.536,18.264 16.68,18.816 16.68,19.488C16.68,21.096 15.768,22.08 14.184,22.08C12.528,22.08 11.784,21.048 11.76,19.392L13.44,19.392C13.44,20.184 13.704,20.568 14.232,20.568C14.496,20.568 14.688,20.496 14.784,20.328C14.976,20.016 15.024,19.152 14.736,18.816C14.424,18.408 13.824,18.216 13.416,18C12.864,17.736 12.456,17.424 12.192,17.064C11.952,16.704 11.832,16.176 11.832,15.528C11.832,14.088 12.768,13.056 14.256,13.08M19.656,13.08C21.24,13.08 21.96,14.16 21.984,15.72L20.376,15.72C20.376,15.432 20.328,15.12 20.208,14.88C20.112,14.688 19.944,14.616 19.68,14.616C19.2,14.616 18.96,14.88 18.96,15.456C18.96,16.032 19.248,16.344 19.752,16.536C20.448,16.824 21.36,17.28 21.672,17.832C21.936,18.264 22.08,18.816 22.08,19.488C22.104,21.096 21.192,22.08 19.608,22.08C17.928,22.08 17.184,21.024 17.16,19.392L18.84,19.392C18.84,20.136 19.104,20.568 19.632,20.568C19.896,20.568 20.088,20.496 20.184,20.328C20.4,20.016 20.448,19.152 20.136,18.816C19.848,18.408 19.248,18.216 18.816,18C18.264,17.736 17.856,17.424 17.616,17.064C17.376,16.704 17.256,16.176 17.256,15.528C17.232,14.088 18.168,13.056 19.656,13.08M8.625,13.098C9.336,13.092 10.044,13.296 10.464,13.728C10.896,14.16 11.136,14.856 11.112,15.72L9.336,15.72C9.36,15.264 9.24,14.928 8.904,14.76C8.592,14.616 8.136,14.712 8.016,15C7.896,15.264 7.824,15.576 7.848,15.864L7.848,19.368C7.848,20.112 8.112,20.496 8.616,20.496C8.832,20.506 9.04,20.406 9.168,20.232C9.336,19.992 9.36,19.68 9.336,19.392L11.112,19.392C11.208,21.024 10.128,22.104 8.544,22.08C7.008,22.08 6.048,21.216 6.072,19.608L6.072,15.576C6.072,14.76 6.312,14.136 6.768,13.728C7.2,13.32 7.914,13.104 8.625,13.098" style="fill:white;fill-rule:nonzero;"/>
</svg>
