<?xml version="1.0" encoding="UTF-8" standalone="no"?>
<!DOCTYPE svg PUBLIC "-//W3C//DTD SVG 1.1//EN" "http://www.w3.org/Graphics/SVG/1.1/DTD/svg11.dtd">
<svg width="100%" height="100%" viewBox="0 0 24 24" version="1.1" xmlns="http://www.w3.org/2000/svg" xmlns:xlink="http://www.w3.org/1999/xlink" xml:space="preserve" xmlns:serif="http://www.serif.com/" style="fill-rule:evenodd;clip-rule:evenodd;stroke-linejoin:round;stroke-miterlimit:2;">
    <path d="M12.735,16.49L12.735,19.461C12.735,21.964 10.688,24 8.172,24C5.683,24 3.657,21.986 3.657,19.51C3.657,17.941 4.466,16.558 5.688,15.755C4.466,14.952 3.658,13.568 3.658,12C3.658,10.432 4.466,9.049 5.688,8.245C4.466,7.442 3.658,6.059 3.658,4.491C3.658,2.015 5.672,0 8.148,0L15.852,0C18.328,0 20.342,2.014 20.342,4.49C20.342,6.059 19.534,7.442 18.312,8.245C19.534,9.049 20.342,10.432 20.342,12C20.342,14.476 18.328,16.49 15.852,16.49L15.754,16.49C14.593,16.49 13.533,16.047 12.735,15.321L12.735,16.49ZM8.148,16.49C6.493,16.492 5.131,17.854 5.129,19.509C5.129,21.174 6.494,22.528 8.173,22.528C9.878,22.528 11.266,21.152 11.266,19.46L11.266,16.49L8.148,16.49ZM8.148,8.981C6.483,8.981 5.129,10.336 5.129,12C5.129,13.664 6.484,15.019 8.148,15.019L11.265,15.019L11.265,12.083C11.264,12.055 11.264,12.028 11.264,12C11.264,11.973 11.264,11.945 11.265,11.918L11.265,8.981L8.148,8.981ZM11.264,1.471L8.148,1.471C6.483,1.471 5.129,2.826 5.129,4.49C5.129,6.154 6.483,7.51 8.148,7.51L11.265,7.51L11.264,1.471ZM12.735,1.472L12.736,7.51L15.852,7.51C17.517,7.51 18.871,6.155 18.871,4.491C18.871,2.827 17.516,1.472 15.852,1.472L12.735,1.472ZM12.736,12C12.736,13.664 14.091,15.019 15.755,15.019L15.853,15.019C17.518,15.019 18.872,13.664 18.872,12C18.872,10.336 17.517,8.981 15.852,8.981L15.755,8.981C14.09,8.981 12.736,10.336 12.736,12Z" style="fill:white;"/>
</svg>
