<?xml version="1.0" encoding="UTF-8" standalone="no"?>
<!DOCTYPE svg PUBLIC "-//W3C//DTD SVG 1.1//EN" "http://www.w3.org/Graphics/SVG/1.1/DTD/svg11.dtd">
<svg width="100%" height="100%" viewBox="0 0 24 24" version="1.1" xmlns="http://www.w3.org/2000/svg" xmlns:xlink="http://www.w3.org/1999/xlink" xml:space="preserve" xmlns:serif="http://www.serif.com/" style="fill-rule:evenodd;clip-rule:evenodd;stroke-linejoin:round;stroke-miterlimit:2;">
    <path d="M8.073,24C7.725,24 7.384,23.937 7.053,23.811C5.678,23.286 4.949,21.791 5.327,20.409L5.312,20.403L5.402,20.177L12.399,2.01C12.504,1.74 12.456,1.1 12.405,0.743C12.389,0.658 12.389,0.582 12.413,0.503L12.421,0.48L12.427,0.465L12.427,0.458L12.436,0.439C12.544,0.147 12.886,0 13.444,0C14.117,0 15.046,0.21 15.995,0.573C16.792,0.88 17.518,1.262 18.028,1.648C18.63,2.098 18.87,2.502 18.735,2.848L18.704,2.893L18.688,2.908C18.643,2.969 18.598,3.028 18.538,3.073C18.224,3.344 17.774,3.808 17.698,4.018L10.635,22.439L10.619,22.433C10.125,23.381 9.162,23.99 8.076,23.994L8.07,23.994L8.073,24ZM5.886,20.282L5.866,20.332C5.419,21.533 6.028,22.889 7.23,23.35C7.501,23.455 7.781,23.504 8.067,23.504C9.038,23.504 9.897,22.919 10.255,22.004L10.282,21.943L17.241,3.853C17.387,3.463 18.081,2.833 18.22,2.713L18.236,2.697C18.248,2.682 18.256,2.682 18.256,2.667C18.256,2.607 18.195,2.397 17.699,2.022C17.22,1.662 16.545,1.302 15.795,1.017C14.927,0.689 14.027,0.478 13.427,0.478C13.037,0.478 12.903,0.56 12.882,0.604L12.882,0.644C12.898,0.748 13.029,1.679 12.848,2.159L5.886,20.279L5.886,20.282ZM14.836,8.775C14.836,8.775 13.872,9.884 12.993,10.284C12.113,10.682 11.464,10.577 10.673,11.04C9.884,11.501 9.485,12.143 9.485,12.143L6.27,20.505C5.922,21.449 6.438,22.555 7.395,22.925C8.355,23.294 9.435,22.805 9.807,21.869L14.836,8.775ZM9.905,18.76C10.009,18.719 10.13,18.76 10.171,18.865C10.213,18.969 10.171,19.087 10.066,19.129C9.962,19.172 9.841,19.129 9.8,19.025C9.758,18.928 9.8,18.809 9.905,18.76ZM8.891,16.958C8.739,17.026 8.557,16.958 8.494,16.803C8.424,16.651 8.494,16.469 8.648,16.406C8.802,16.336 8.983,16.406 9.046,16.559C9.12,16.709 9.054,16.873 8.891,16.949L8.891,16.958ZM9.177,15.862C9.054,15.574 9.177,15.239 9.464,15.104C9.749,14.98 10.079,15.104 10.214,15.389C10.335,15.678 10.214,16.013 9.929,16.146C9.629,16.272 9.3,16.146 9.164,15.861L9.177,15.862ZM11.603,13.604C11.756,13.53 11.938,13.604 12.001,13.754C12.071,13.908 12.001,14.09 11.848,14.153C11.693,14.223 11.511,14.153 11.449,13.998C11.375,13.846 11.449,13.664 11.603,13.601L11.603,13.604ZM10.31,12.225C10.415,12.183 10.536,12.225 10.576,12.33C10.619,12.434 10.576,12.556 10.472,12.596C10.368,12.638 10.246,12.596 10.207,12.492C10.163,12.386 10.213,12.265 10.31,12.225ZM13.681,1.14C13.781,0.879 14.674,0.978 15.676,1.366C16.675,1.75 17.405,2.275 17.306,2.536C17.202,2.8 16.309,2.7 15.31,2.315C14.305,1.93 13.576,1.405 13.678,1.139L13.681,1.139L13.681,1.14Z" style="fill:white;fill-rule:nonzero;"/>
</svg>
