<?xml version="1.0" encoding="UTF-8" standalone="no"?>
<!DOCTYPE svg PUBLIC "-//W3C//DTD SVG 1.1//EN" "http://www.w3.org/Graphics/SVG/1.1/DTD/svg11.dtd">
<svg width="100%" height="100%" viewBox="0 0 384 512" version="1.1" xmlns="http://www.w3.org/2000/svg" xmlns:xlink="http://www.w3.org/1999/xlink" xml:space="preserve" xmlns:serif="http://www.serif.com/" style="fill-rule:evenodd;clip-rule:evenodd;stroke-linejoin:round;stroke-miterlimit:2;">
    <path d="M40.1,467.1L28.9,476.1C25.7,478.6 21.8,480 17.8,480C8,480 0,472 0,462.2L0,192C0,86 86,0 192,0C298,0 384,86 384,192L384,462.2C384,472 376,480 366.2,480C362.2,480 358.3,478.6 355.1,476.1L343.9,467.1C330.5,456.4 311.1,458.1 299.8,471L269.3,506C266,509.8 261.1,512 256,512C250.9,512 246.1,509.8 242.7,506L216.1,475.5C203.4,460.9 180.7,460.9 167.9,475.5L141.3,506C138,509.8 133.1,512 128,512C122.9,512 118.1,509.8 114.7,506L84.2,471C72.9,458.1 53.5,456.4 40.1,467.1ZM160,192C160,174.445 145.555,160 128,160C110.445,160 96,174.445 96,192C96,209.555 110.445,224 128,224C145.555,224 160,209.555 160,192ZM256,224C273.555,224 288,209.555 288,192C288,174.445 273.555,160 256,160C238.445,160 224,174.445 224,192C224,209.555 238.445,224 256,224Z" style="fill:white;fill-rule:nonzero;"/>
</svg>
