<?xml version="1.0" encoding="UTF-8" standalone="no"?>
<!DOCTYPE svg PUBLIC "-//W3C//DTD SVG 1.1//EN" "http://www.w3.org/Graphics/SVG/1.1/DTD/svg11.dtd">
<svg width="100%" height="100%" viewBox="0 0 512 512" version="1.1" xmlns="http://www.w3.org/2000/svg" xmlns:xlink="http://www.w3.org/1999/xlink" xml:space="preserve" xmlns:serif="http://www.serif.com/" style="fill-rule:evenodd;clip-rule:evenodd;stroke-linejoin:round;stroke-miterlimit:2;">
    <path d="M352,96C352,110.3 348.9,123.9 343.2,136.2L396,227.4C372.3,252.7 341.8,271.5 307.5,281L256,192L188,309.5C209.5,316.3 232.3,320 256.1,320C326.8,320 389.9,287.3 431,236C442.1,222.2 462.2,220 476,231C489.8,242 492,262.2 481,276C428.1,341.8 347,384 256,384C220.6,384 186.6,377.6 155.3,365.9L98.7,463.7C94,471.8 87,478.4 78.6,482.6L23.2,510.3C18.2,512.8 12.3,512.5 7.6,509.6C2.9,506.7 0,501.5 0,496L0,440.6C0,432.2 2.2,423.9 6.5,416.5L66.5,312.8C53.7,301.6 41.8,289.3 31.2,276C20.1,262.2 22.4,242.1 36.2,231C50,219.9 70.1,222.2 81.2,236C86.9,243.1 93,249.8 99.4,256.1L168.8,136.2C163.2,124 160,110.4 160,96C160,43 203,0 256,0C309,0 352,43 352,96ZM373,393.9C405.6,381.1 435.5,363.1 461.9,341L505.6,416.5C509.8,423.8 512.1,432.1 512.1,440.6L512.1,496C512.1,501.5 509.2,506.7 504.5,509.6C499.8,512.5 493.9,512.8 488.9,510.3L433.5,482.6C425.1,478.4 418.1,471.8 413.4,463.7L373,393.9ZM256,128C273.555,128 288,113.555 288,96C288,78.445 273.555,64 256,64C238.445,64 224,78.445 224,96C224,113.555 238.445,128 256,128Z" style="fill:white;fill-rule:nonzero;"/>
</svg>
