<?xml version="1.0" encoding="UTF-8" standalone="no"?>
<!DOCTYPE svg PUBLIC "-//W3C//DTD SVG 1.1//EN" "http://www.w3.org/Graphics/SVG/1.1/DTD/svg11.dtd">
<svg width="100%" height="100%" viewBox="0 0 512 512" version="1.1" xmlns="http://www.w3.org/2000/svg" xmlns:xlink="http://www.w3.org/1999/xlink" xml:space="preserve" xmlns:serif="http://www.serif.com/" style="fill-rule:evenodd;clip-rule:evenodd;stroke-linejoin:round;stroke-miterlimit:2;">
    <path d="M61.1,224C45,224 32,211 32,194.9C32,193 32.2,191.2 32.6,189.3C37.9,168.3 78.8,32 256,32C433.2,32 474.1,168.3 479.4,189.3C479.9,191.2 480,193 480,194.9C480,211 467,224 450.9,224L61.1,224ZM144,128C144,119.223 136.777,112 128,112C119.223,112 112,119.223 112,128C112,136.777 119.223,144 128,144C136.777,144 144,136.777 144,128ZM384,144C392.777,144 400,136.777 400,128C400,119.223 392.777,112 384,112C375.223,112 368,119.223 368,128C368,136.777 375.223,144 384,144ZM272,96C272,87.223 264.777,80 256,80C247.223,80 240,87.223 240,96C240,104.777 247.223,112 256,112C264.777,112 272,104.777 272,96ZM16,304C16,277.5 37.5,256 64,256L448,256C474.5,256 496,277.5 496,304C496,330.5 474.5,352 448,352L64,352C37.5,352 16,330.5 16,304ZM32,400C32,391.2 39.2,384 48,384L464,384C472.8,384 480,391.2 480,400L480,416C480,451.3 451.3,480 416,480L96,480C60.7,480 32,451.3 32,416L32,400Z" style="fill:white;fill-rule:nonzero;"/>
</svg>
