<?xml version="1.0" encoding="UTF-8" standalone="no"?>
<!DOCTYPE svg PUBLIC "-//W3C//DTD SVG 1.1//EN" "http://www.w3.org/Graphics/SVG/1.1/DTD/svg11.dtd">
<svg width="100%" height="100%" viewBox="0 0 512 512" version="1.1" xmlns="http://www.w3.org/2000/svg" xmlns:xlink="http://www.w3.org/1999/xlink" xml:space="preserve" xmlns:serif="http://www.serif.com/" style="fill-rule:evenodd;clip-rule:evenodd;stroke-linejoin:round;stroke-miterlimit:2;">
    <path d="M410.3,231L421.6,219.7L291.7,89.8L58.6,322.9C48.2,333.3 40.6,346.2 36.4,360.3L1,480.7C-1.5,489.1 0.8,498.2 7.1,504.4C13.4,510.6 22.4,512.9 30.8,510.5L151.1,475.1C165.2,470.9 178.1,463.3 188.5,452.9L387.7,253.7L410.3,231ZM160,399.4L150.9,422.1C146.9,425.2 142.4,427.5 137.6,429L59.4,452L82.4,373.9C83.8,369 86.2,364.5 89.3,360.6L112,351.5L112,383.5C112,392.3 119.2,399.5 128,399.5L160,399.5L160,399.4ZM362.7,18.7L348.3,33.2L325.7,55.8L314.3,67.1L444.2,197L492.6,148.6C517.6,123.6 517.6,83.1 492.6,58.1L453.3,18.7C428.3,-6.3 387.8,-6.3 362.8,18.7L362.7,18.7ZM315.3,186.7L171.3,330.7C165.1,336.9 154.9,336.9 148.7,330.7C142.5,324.5 142.5,314.3 148.7,308.1L292.7,164.1C298.9,157.9 309.1,157.9 315.3,164.1C321.5,170.3 321.5,180.5 315.3,186.7Z" style="fill:white;fill-rule:nonzero;"/>
</svg>
